<svg width="64" height="64" viewBox="0 0 64 64" fill="none" xmlns="http://www.w3.org/2000/svg">
<g clip-path="url(#clip0_225_4208)">
<path d="M15.2524 58.3822C14.1738 59.0857 12.8866 59.496 11.503 59.496C7.70651 59.496 4.62895 56.4185 4.62895 52.622C4.62895 48.8257 7.70651 45.748 11.503 45.748C12.8866 45.748 14.1738 46.1583 15.2524 46.8619C13.372 48.0884 12.1279 50.2094 12.1279 52.622C12.1279 55.0347 13.3718 57.1556 15.2524 58.3822ZM11.378 18.1269C12.7617 18.1269 14.0489 17.7166 15.1275 17.0131C13.247 15.7865 12.0029 13.6656 12.0029 11.2529C12.0029 8.84027 13.247 6.71932 15.1275 5.49275C14.0489 4.78922 12.7617 4.37891 11.378 4.37891C7.58153 4.37891 4.50397 7.45659 4.50397 11.2529C4.50397 15.0493 7.58153 18.1269 11.378 18.1269ZM53.622 52.747C53.622 50.3344 54.866 48.2134 56.7465 46.9868C55.6679 46.2833 54.3807 45.873 52.9971 45.873C49.2006 45.873 46.123 48.9507 46.123 52.747C46.123 56.5435 49.2006 59.621 52.9971 59.621C54.3807 59.621 55.6679 59.2107 56.7465 58.5072C54.8659 57.2806 53.622 55.1597 53.622 52.747ZM52.8721 18.1269C54.2557 18.1269 55.5429 17.7166 56.6215 17.0131C54.7411 15.7865 53.497 13.6656 53.497 11.2529C53.497 8.84027 54.7411 6.71932 56.6215 5.49275C55.5429 4.78922 54.2557 4.37891 52.8721 4.37891C49.0756 4.37891 45.9981 7.45659 45.9981 11.2529C45.9981 15.0493 49.0756 18.1269 52.8721 18.1269Z" fill="#F1E0E4"/>
<path d="M52.997 62.1207C47.8284 62.1207 43.6234 57.9157 43.6234 52.7471C43.6234 47.5784 47.8284 43.3734 52.997 43.3734C58.1657 43.3734 62.3707 47.5784 62.3707 52.7471C62.3707 57.9157 58.1657 62.1207 52.997 62.1207ZM52.997 48.3727C50.585 48.3727 48.6227 50.335 48.6227 52.7471C48.6227 55.1591 50.585 57.1214 52.997 57.1214C55.4091 57.1214 57.3714 55.1591 57.3714 52.7471C57.3714 50.335 55.4091 48.3727 52.997 48.3727ZM11.378 20.6266C6.20933 20.6266 2.0043 16.4216 2.0043 11.253C2.0043 6.08434 6.20933 1.87932 11.378 1.87932C16.5466 1.87932 20.7516 6.08434 20.7516 11.253C20.7516 16.4216 16.5466 20.6266 11.378 20.6266ZM11.378 6.8786C8.96593 6.8786 7.00359 8.84095 7.00359 11.253C7.00359 13.665 8.96593 15.6274 11.378 15.6274C13.79 15.6274 15.7523 13.665 15.7523 11.253C15.7523 8.84095 13.79 6.8786 11.378 6.8786ZM52.872 20.6266C47.7034 20.6266 43.4984 16.4216 43.4984 11.253C43.4984 6.08434 47.7034 1.87932 52.872 1.87932C58.0407 1.87932 62.2457 6.08434 62.2457 11.253C62.2457 16.4216 58.0407 20.6266 52.872 20.6266ZM52.872 6.8786C50.46 6.8786 48.4977 8.84095 48.4977 11.253C48.4977 13.665 50.46 15.6274 52.872 15.6274C55.2841 15.6274 57.2464 13.665 57.2464 11.253C57.2464 8.84095 55.2841 6.8786 52.872 6.8786ZM11.5029 61.9957C6.33431 61.9957 2.12928 57.7907 2.12928 52.6221C2.12928 47.4534 6.33431 43.2484 11.5029 43.2484C16.6716 43.2484 20.8766 47.4534 20.8766 52.6221C20.8766 57.7907 16.6716 61.9957 11.5029 61.9957ZM11.5029 48.2477C9.09091 48.2477 7.12857 50.21 7.12857 52.6221C7.12857 55.0341 9.09091 56.9965 11.5029 56.9965C13.915 56.9965 15.8773 55.0341 15.8773 52.6221C15.8773 50.21 13.915 48.2477 11.5029 48.2477ZM63.3328 38.5303C64.2289 34.1993 64.2223 29.8087 63.3131 25.4806C63.0292 24.1294 61.7038 23.2643 60.3529 23.5481C59.0018 23.8319 58.1367 25.1572 58.4205 26.5083C59.1875 30.1598 59.1931 33.8638 58.4373 37.5176C58.1575 38.8694 59.0267 40.1921 60.3786 40.4718C60.5496 40.5072 60.7197 40.5242 60.8877 40.5242C62.0481 40.5241 63.0886 39.7113 63.3328 38.5303ZM38.5302 63.3329C39.8822 63.0533 40.7513 61.7308 40.4717 60.3787C40.1921 59.0269 38.8692 58.1569 37.5175 58.4374C33.8635 59.1931 30.1593 59.1875 26.5082 58.4205C25.1571 58.1373 23.8318 59.0019 23.5481 60.353C23.2643 61.704 24.1295 63.0292 25.4805 63.3132C27.6606 63.7711 29.856 64 32.0523 64C34.2162 64 36.3809 63.7775 38.5302 63.3329ZM40.4518 3.64694C40.7357 2.29588 39.8704 0.970695 38.5195 0.686735C34.1913 -0.22226 29.8008 -0.228884 25.4697 0.666988C24.1178 0.946573 23.2486 2.26913 23.5282 3.62119C23.8079 4.973 25.1309 5.84275 26.4824 5.56254C30.1364 4.8069 33.8406 4.8124 37.4917 5.57941C37.6651 5.61578 37.8378 5.63328 38.008 5.63328C39.1655 5.63315 40.2045 4.82465 40.4518 3.64694ZM3.64706 40.4519C4.99812 40.1681 5.86325 38.8428 5.57941 37.4917C4.8124 33.8403 4.80677 30.1363 5.56267 26.4824C5.84238 25.1306 4.97325 23.8079 3.62132 23.5282C2.26851 23.2479 0.9467 24.1178 0.667114 25.4696C-0.229008 29.8007 -0.222384 34.1913 0.686862 38.5195C0.934201 39.6973 1.97318 40.5058 3.13064 40.5058C3.30086 40.5057 3.47384 40.4883 3.64706 40.4519Z" fill="#04063E"/>
<path d="M39.6239 36.4682C39.6239 34.6131 38.8319 32.8896 37.3939 31.6149C36.0373 30.4125 34.2438 29.7504 32.3437 29.7504C30.794 29.7504 29.6253 29.0116 29.6253 28.0319C29.6253 27.0843 30.4032 26.3134 31.3595 26.3134C32.2291 26.3134 33.5247 26.429 35.8433 27.3307C37.1301 27.8312 38.5786 27.1936 39.079 25.9071C39.5793 24.6204 38.9419 23.1717 37.6553 22.6714C36.6587 22.2838 35.7433 21.9862 34.8746 21.7688V20.3766C34.8746 18.996 33.7555 17.877 32.3749 17.877C30.9944 17.877 29.8753 18.996 29.8753 20.3766V21.4804C26.8745 22.1568 24.6261 24.8365 24.6261 28.0318C24.6261 31.8616 27.944 34.7496 32.3437 34.7496C33.6014 34.7496 34.6246 35.5204 34.6246 36.4681C34.6246 37.3995 33.8055 38.1866 32.8358 38.1866C32.0414 38.1866 30.0053 37.8782 27.924 37.051C26.641 36.5412 25.1877 37.1677 24.6778 38.4506C24.1679 39.7335 24.7945 41.1869 26.0775 41.6968C27.3302 42.1946 28.6011 42.5583 29.7503 42.8022V43.9982C29.7503 45.3788 30.8694 46.4979 32.25 46.4979C33.6305 46.4979 34.7496 45.3788 34.7496 43.9982V42.9123C37.5633 42.0924 39.6239 39.5147 39.6239 36.4682Z" fill="#FFAE01"/>
</g>
<defs>
<clipPath id="clip0_225_4208">
<rect width="64" height="64" fill="white"/>
</clipPath>
</defs>
</svg>
