<svg width="207" height="31" viewBox="0 0 207 31" fill="none" xmlns="http://www.w3.org/2000/svg">
<path d="M37 23.5737V1.27396H41.6385V9.65812H41.7801C41.9833 9.20806 42.2773 8.75074 42.662 8.28617C43.054 7.81433 43.5622 7.42235 44.1864 7.11021C44.818 6.79081 45.6019 6.63111 46.5383 6.63111C47.7579 6.63111 48.883 6.95051 49.9138 7.5893C50.9446 8.22084 51.7685 9.1754 52.3855 10.453C53.0025 11.7233 53.311 13.3167 53.311 15.233C53.311 17.0986 53.0098 18.6738 52.4073 19.9587C51.812 21.2363 50.999 22.2053 49.9682 22.8659C48.9447 23.5192 47.7978 23.8459 46.5275 23.8459C45.6273 23.8459 44.8615 23.6971 44.23 23.3994C43.6057 23.1018 43.0939 22.728 42.6947 22.2779C42.2955 21.8206 41.9906 21.3597 41.7801 20.8951H41.5732V23.5737H37ZM41.5405 15.2113C41.5405 16.2058 41.6784 17.0732 41.9543 17.8136C42.2301 18.554 42.6294 19.1311 43.152 19.5449C43.6747 19.9514 44.3098 20.1547 45.0575 20.1547C45.8124 20.1547 46.4512 19.9478 46.9739 19.534C47.4965 19.113 47.8922 18.5323 48.1607 17.7919C48.4366 17.0442 48.5745 16.184 48.5745 15.2113C48.5745 14.2458 48.4402 13.3965 48.1716 12.6634C47.903 11.9302 47.5074 11.3567 46.9848 10.943C46.4621 10.5292 45.8197 10.3223 45.0575 10.3223C44.3026 10.3223 43.6638 10.5219 43.1411 10.9212C42.6257 11.3204 42.2301 11.8866 41.9543 12.6198C41.6784 13.353 41.5405 14.2168 41.5405 15.2113Z" fill="#04063E"/>
<path d="M62.3638 23.9003C60.6434 23.9003 59.1626 23.5519 57.9213 22.855C56.6872 22.1509 55.7363 21.1564 55.0685 19.8716C54.4007 18.5795 54.0667 17.0514 54.0667 15.2875C54.0667 13.5671 54.4007 12.0572 55.0685 10.7579C55.7363 9.4585 56.6764 8.44587 57.8886 7.71996C59.1081 6.99406 60.5382 6.63111 62.1787 6.63111C63.2821 6.63111 64.3092 6.80896 65.2601 7.16465C66.2183 7.51308 67.0531 8.03936 67.7645 8.74349C68.4831 9.44761 69.0421 10.3332 69.4413 11.4003C69.8406 12.4601 70.0402 13.7014 70.0402 15.1242V16.3981H55.9178V13.5235H65.6739C65.6739 12.8557 65.5287 12.2641 65.2384 11.7487C64.948 11.2333 64.5451 10.8305 64.0297 10.5401C63.5216 10.2425 62.93 10.0937 62.2549 10.0937C61.5508 10.0937 60.9265 10.257 60.3821 10.5836C59.8449 10.903 59.4239 11.335 59.119 11.8794C58.8141 12.4165 58.6581 13.0154 58.6508 13.676V16.409C58.6508 17.2365 58.8033 17.9515 59.1081 18.554C59.4203 19.1565 59.8594 19.6211 60.4256 19.9478C60.9918 20.2744 61.6633 20.4378 62.44 20.4378C62.9554 20.4378 63.4272 20.3652 63.8555 20.22C64.2838 20.0748 64.6504 19.857 64.9553 19.5667C65.2601 19.2763 65.4924 18.9206 65.6521 18.4996L69.9422 18.7827C69.7244 19.8135 69.278 20.7136 68.6029 21.4831C67.9351 22.2453 67.0713 22.8405 66.0115 23.2688C64.9589 23.6898 63.743 23.9003 62.3638 23.9003Z" fill="#04063E"/>
<path d="M71.403 23.5737V6.84888H75.8237V9.79967H76.0197C76.3681 8.81971 76.9489 8.04662 77.7619 7.48042C78.5749 6.91421 79.5476 6.63111 80.68 6.63111C81.8269 6.63111 82.8033 6.91784 83.609 7.4913C84.4148 8.05751 84.9519 8.82696 85.2205 9.79967H85.3947C85.7359 8.84148 86.3529 8.07566 87.2458 7.50219C88.1459 6.92147 89.2093 6.63111 90.4361 6.63111C91.9968 6.63111 93.2635 7.12835 94.2362 8.12284C95.2162 9.11007 95.7062 10.5111 95.7062 12.3258V23.5737H91.0785V13.2404C91.0785 12.3113 90.8317 11.6144 90.3381 11.1498C89.8445 10.6853 89.2275 10.453 88.4871 10.453C87.645 10.453 86.9881 10.7216 86.5162 11.2587C86.0444 11.7886 85.8085 12.4891 85.8085 13.3602V23.5737H81.3115V13.1424C81.3115 12.3222 81.0756 11.6689 80.6038 11.1825C80.1392 10.6962 79.5258 10.453 78.7636 10.453C78.2482 10.453 77.7836 10.5836 77.3699 10.845C76.9634 11.099 76.6404 11.4584 76.4008 11.9229C76.1613 12.3803 76.0415 12.9174 76.0415 13.5344V23.5737H71.403Z" fill="#04063E"/>
<path d="M102.475 23.8894C101.408 23.8894 100.457 23.7043 99.6223 23.3341C98.7875 22.9566 98.1269 22.4013 97.6406 21.6682C97.1615 20.9277 96.9219 20.0058 96.9219 18.9025C96.9219 17.9733 97.0925 17.193 97.4337 16.5614C97.7749 15.9299 98.2394 15.4218 98.8274 15.0371C99.4154 14.6523 100.083 14.362 100.831 14.166C101.586 13.97 102.377 13.8321 103.205 13.7522C104.177 13.6506 104.961 13.5562 105.557 13.4691C106.152 13.3747 106.584 13.2368 106.852 13.0553C107.121 12.8739 107.255 12.6053 107.255 12.2496V12.1843C107.255 11.4947 107.037 10.9611 106.602 10.5836C106.174 10.2062 105.564 10.0174 104.773 10.0174C103.938 10.0174 103.274 10.2025 102.78 10.5728C102.286 10.9357 101.96 11.393 101.8 11.9447L97.5099 11.5963C97.7277 10.58 98.156 9.70168 98.7948 8.96126C99.4335 8.21358 100.257 7.64011 101.266 7.24087C102.283 6.83436 103.459 6.63111 104.794 6.63111C105.723 6.63111 106.613 6.74 107.462 6.95777C108.319 7.17554 109.077 7.51308 109.738 7.9704C110.406 8.42772 110.932 9.0157 111.317 9.73434C111.701 10.4457 111.894 11.2987 111.894 12.2931V23.5737H107.495V21.2544H107.364C107.095 21.7771 106.736 22.238 106.286 22.6372C105.836 23.0292 105.295 23.3377 104.664 23.5628C104.032 23.7805 103.303 23.8894 102.475 23.8894ZM103.803 20.6882C104.486 20.6882 105.088 20.5539 105.611 20.2853C106.134 20.0095 106.544 19.6393 106.841 19.1747C107.139 18.7101 107.288 18.1838 107.288 17.5959V15.821C107.143 15.9154 106.943 16.0025 106.689 16.0824C106.442 16.1549 106.163 16.2239 105.851 16.2892C105.538 16.3473 105.226 16.4017 104.914 16.4526C104.602 16.4961 104.319 16.536 104.065 16.5723C103.52 16.6522 103.045 16.7792 102.638 16.9534C102.232 17.1276 101.916 17.3636 101.691 17.6612C101.466 17.9515 101.354 18.3145 101.354 18.75C101.354 19.3816 101.582 19.8643 102.04 20.1982C102.504 20.5249 103.092 20.6882 103.803 20.6882Z" fill="#04063E"/>
<path d="M113.828 23.5737V6.84888H118.325V9.76701H118.499C118.804 8.72897 119.316 7.94499 120.035 7.41509C120.753 6.87792 121.581 6.60933 122.517 6.60933C122.749 6.60933 123 6.62385 123.268 6.65289C123.537 6.68192 123.773 6.72185 123.976 6.77266V10.8885C123.758 10.8232 123.457 10.7651 123.072 10.7143C122.688 10.6635 122.336 10.6381 122.016 10.6381C121.334 10.6381 120.724 10.7869 120.187 11.0845C119.657 11.3749 119.236 11.7814 118.924 12.304C118.619 12.8267 118.467 13.4292 118.467 14.1115V23.5737H113.828Z" fill="#04063E"/>
<path d="M128.913 18.7609L128.924 13.1969H129.599L134.956 6.84888H140.281L133.083 15.2548H131.984L128.913 18.7609ZM124.71 23.5737V1.27396H129.349V23.5737H124.71ZM135.163 23.5737L130.242 16.2892L133.334 13.0118L140.596 23.5737H135.163Z" fill="#04063E"/>
<path d="M147.825 23.9003C146.105 23.9003 144.624 23.5519 143.383 22.855C142.149 22.1509 141.198 21.1564 140.53 19.8716C139.862 18.5795 139.528 17.0514 139.528 15.2875C139.528 13.5671 139.862 12.0572 140.53 10.7579C141.198 9.4585 142.138 8.44587 143.35 7.71996C144.57 6.99406 146 6.63111 147.64 6.63111C148.744 6.63111 149.771 6.80896 150.722 7.16465C151.68 7.51308 152.515 8.03936 153.226 8.74349C153.945 9.44761 154.504 10.3332 154.903 11.4003C155.302 12.4601 155.502 13.7014 155.502 15.1242V16.3981H141.379V13.5235H151.136C151.136 12.8557 150.99 12.2641 150.7 11.7487C150.41 11.2333 150.007 10.8305 149.491 10.5401C148.983 10.2425 148.392 10.0937 147.717 10.0937C147.012 10.0937 146.388 10.257 145.844 10.5836C145.307 10.903 144.886 11.335 144.581 11.8794C144.276 12.4165 144.12 13.0154 144.112 13.676V16.409C144.112 17.2365 144.265 17.9515 144.57 18.554C144.882 19.1565 145.321 19.6211 145.887 19.9478C146.453 20.2744 147.125 20.4378 147.902 20.4378C148.417 20.4378 148.889 20.3652 149.317 20.22C149.745 20.0748 150.112 19.857 150.417 19.5667C150.722 19.2763 150.954 18.9206 151.114 18.4996L155.404 18.7827C155.186 19.8135 154.74 20.7136 154.065 21.4831C153.397 22.2453 152.533 22.8405 151.473 23.2688C150.421 23.6898 149.205 23.9003 147.825 23.9003Z" fill="#04063E"/>
<path d="M165.761 6.84888V10.3332H155.689V6.84888H165.761ZM157.975 2.84191H162.614V18.4343C162.614 18.8626 162.679 19.1965 162.81 19.436C162.94 19.6683 163.122 19.8316 163.354 19.926C163.594 20.0204 163.87 20.0676 164.182 20.0676C164.399 20.0676 164.617 20.0494 164.835 20.0131C165.053 19.9696 165.22 19.9369 165.336 19.9151L166.065 23.3668C165.833 23.4394 165.506 23.5228 165.085 23.6172C164.664 23.7188 164.153 23.7805 163.55 23.8023C162.432 23.8459 161.452 23.6971 160.61 23.3559C159.775 23.0147 159.126 22.4848 158.661 21.7662C158.197 21.0475 157.968 20.1401 157.975 19.044V2.84191Z" fill="#04063E"/>
<path d="M167.118 23.5737V6.84888H171.756V23.5737H167.118ZM169.448 4.69295C168.758 4.69295 168.167 4.4643 167.673 4.00698C167.187 3.5424 166.944 2.98709 166.944 2.34103C166.944 1.70224 167.187 1.15418 167.673 0.696867C168.167 0.232289 168.758 0 169.448 0C170.138 0 170.726 0.232289 171.212 0.696867C171.706 1.15418 171.952 1.70224 171.952 2.34103C171.952 2.98709 171.706 3.5424 171.212 4.00698C170.726 4.4643 170.138 4.69295 169.448 4.69295Z" fill="#04063E"/>
<path d="M178.446 13.9046V23.5737H173.808V6.84888H178.229V9.79967H178.425C178.795 8.82696 179.415 8.05751 180.287 7.4913C181.158 6.91784 182.214 6.63111 183.455 6.63111C184.617 6.63111 185.629 6.88518 186.493 7.39331C187.357 7.90144 188.028 8.62734 188.507 9.57101C188.986 10.5074 189.226 11.6253 189.226 12.9247V23.5737H184.587V13.7522C184.595 12.7287 184.333 11.9302 183.803 11.3567C183.274 10.776 182.544 10.4856 181.615 10.4856C180.991 10.4856 180.439 10.6199 179.96 10.8885C179.488 11.1571 179.118 11.5491 178.849 12.0645C178.588 12.5726 178.454 13.186 178.446 13.9046Z" fill="#04063E"/>
<path d="M198.752 30.1939C197.25 30.1939 195.961 29.987 194.887 29.5732C193.82 29.1667 192.971 28.6114 192.339 27.9073C191.708 27.2032 191.297 26.4119 191.109 25.5336L195.399 24.9565C195.529 25.2904 195.736 25.6026 196.019 25.8929C196.302 26.1833 196.676 26.4156 197.141 26.5898C197.613 26.7713 198.186 26.862 198.861 26.862C199.87 26.862 200.701 26.6152 201.355 26.1216C202.015 25.6352 202.346 24.8186 202.346 23.6717V20.612H202.15C201.946 21.0766 201.642 21.5157 201.235 21.9295C200.829 22.3433 200.306 22.6808 199.667 22.9421C199.028 23.2034 198.266 23.3341 197.38 23.3341C196.125 23.3341 194.981 23.0437 193.951 22.463C192.927 21.875 192.11 20.9786 191.501 19.7736C190.898 18.5613 190.597 17.0297 190.597 15.1786C190.597 13.284 190.905 11.7015 191.522 10.4312C192.139 9.16088 192.96 8.20995 193.983 7.57841C195.014 6.94688 196.143 6.63111 197.37 6.63111C198.306 6.63111 199.09 6.79081 199.721 7.11021C200.353 7.42235 200.861 7.81433 201.246 8.28617C201.638 8.75074 201.939 9.20806 202.15 9.65812H202.324V6.84888H206.93V23.737C206.93 25.1598 206.581 26.3502 205.884 27.3084C205.188 28.2666 204.222 28.9853 202.988 29.4643C201.761 29.9507 200.349 30.1939 198.752 30.1939ZM198.85 19.8498C199.598 19.8498 200.23 19.6647 200.745 19.2945C201.268 18.917 201.667 18.3798 201.943 17.683C202.226 16.9788 202.367 16.1368 202.367 15.1568C202.367 14.1769 202.229 13.3276 201.954 12.6089C201.678 11.883 201.279 11.3204 200.756 10.9212C200.233 10.5219 199.598 10.3223 198.85 10.3223C198.088 10.3223 197.446 10.5292 196.923 10.943C196.4 11.3495 196.005 11.9157 195.736 12.6416C195.468 13.3675 195.333 14.2059 195.333 15.1568C195.333 16.1223 195.468 16.9571 195.736 17.6612C196.012 18.3581 196.408 18.8988 196.923 19.2836C197.446 19.661 198.088 19.8498 198.85 19.8498Z" fill="#04063E"/>
<path d="M30 23.5967V1.59668H9.45391V6.63L23.6857 6.63C19.0148 15.5154 9.14169 20.0719 0 17.5427V22.7258C9.35391 24.762 18.9019 21.0457 24.9803 13.6954L24.9803 23.5967L30 23.5967Z" fill="#FF0054"/>
</svg>
