<svg width="64" height="64" viewBox="0 0 64 64" fill="none" xmlns="http://www.w3.org/2000/svg">
<path d="M18.4051 23.0002C18.4051 12.2541 25.8189 4.36785 35.5775 2.79023C34.4154 2.60235 33.22 2.5041 31.9999 2.50098C20.5346 2.53023 11.25 10.9745 11.25 23.0002C11.25 37.9377 25.9181 49.0002 25.9181 49.0002H37.125C37.125 49.0002 18.4051 37.1252 18.4051 23.0002Z" fill="#F1E0E4"/>
<path d="M37 64H26.875C25.79 64 24.8289 63.3001 24.4958 62.2675L23.2458 58.3925C22.8219 57.0785 23.5435 55.6696 24.8576 55.2458C26.1717 54.8215 27.5804 55.5435 28.0044 56.8576L28.6955 59.0001H35.1796L35.8708 56.8576C36.2948 55.5436 37.7033 54.8225 39.0175 55.2458C40.3316 55.6696 41.0531 57.0785 40.6294 58.3925L39.3794 62.2675C39.0461 63.3001 38.085 64 37 64ZM39.4603 51.0019C39.6218 50.8811 43.458 47.9887 47.3105 43.1609C52.5045 36.6517 55.25 29.6801 55.25 23C55.25 16.5677 52.8128 10.6831 48.3874 6.42987C44.1126 2.32175 38.3391 0.04225 32.1139 0.000625C32.0959 0.00025 32.0776 0 32.0596 0H31.9405C31.9224 0 31.9043 0.00025 31.8861 0.000625C25.6609 0.04225 19.8874 2.32175 15.6126 6.43C11.1873 10.6831 8.75 16.5677 8.75 23C8.75 29.6766 11.4726 36.6454 16.6238 43.1533C20.4458 47.9819 24.2525 50.8751 24.4128 50.996C24.8465 51.3231 25.3749 51.5 25.9181 51.5H37.9626C38.5026 51.5 39.028 51.3253 39.4603 51.0019ZM13.75 23C13.75 12.7577 21.5913 5.02925 32 5.00012C42.4087 5.02925 50.25 12.7577 50.25 23C50.25 34.8094 39.7704 44.2702 37.085 46.5H26.8018C24.1231 44.2562 13.75 34.8019 13.75 23Z" fill="#04063E"/>
<path d="M29.7479 37.7501C29.2374 37.7501 28.7222 37.5944 28.278 37.2707C27.162 36.4579 26.9162 34.8941 27.7291 33.7781L32.2111 27.625H26.75C25.8135 27.625 24.9556 27.1016 24.5271 26.2689C24.0985 25.4363 24.1714 24.4339 24.7157 23.6719L32.2158 13.1719C33.0184 12.0483 34.5798 11.788 35.7031 12.5907C36.8266 13.3932 37.0869 14.9546 36.2842 16.0781L31.608 22.625H37.125C38.0656 22.625 38.9266 23.153 39.3531 23.9914C39.7798 24.8298 39.6995 25.8366 39.1457 26.597L31.7708 36.722C31.2815 37.3936 30.5199 37.7501 29.7479 37.7501ZM57.75 15.625C57.75 17.3509 59.1491 18.75 60.875 18.75C62.6009 18.75 64 17.3509 64 15.625C64 13.8991 62.6009 12.5 60.875 12.5C59.1491 12.5 57.75 13.8991 57.75 15.625ZM57.375 29.75C57.375 31.4759 58.7741 32.875 60.5 32.875C62.2259 32.875 63.625 31.4759 63.625 29.75C63.625 28.0241 62.2259 26.625 60.5 26.625C58.7741 26.625 57.375 28.0241 57.375 29.75ZM0 15.625C0 17.3509 1.39912 18.75 3.125 18.75C4.85087 18.75 6.25 17.3509 6.25 15.625C6.25 13.8991 4.85087 12.5 3.125 12.5C1.39912 12.5 0 13.8991 0 15.625ZM0.5 29.75C0.5 31.4759 1.89912 32.875 3.625 32.875C5.35087 32.875 6.75 31.4759 6.75 29.75C6.75 28.0241 5.35087 26.625 3.625 26.625C1.89912 26.625 0.5 28.0241 0.5 29.75ZM6.25 3.125C6.25 4.85087 7.64913 6.25 9.375 6.25C11.1009 6.25 12.5 4.85087 12.5 3.125C12.5 1.39912 11.1009 0 9.375 0C7.64913 0 6.25 1.39912 6.25 3.125ZM51.75 3.125C51.75 4.85087 53.1491 6.25 54.875 6.25C56.6009 6.25 58 4.85087 58 3.125C58 1.39912 56.6009 0 54.875 0C53.1491 0 51.75 1.39912 51.75 3.125Z" fill="#01B976"/>
</svg>
