<svg width="64" height="64" viewBox="0 0 64 64" fill="none" xmlns="http://www.w3.org/2000/svg">
<g clip-path="url(#clip0_225_4207)">
<path d="M10.158 26.3547C10.158 14.4104 18.9357 4.51638 30.3925 2.77134C29.2114 2.59135 28.0017 2.49805 26.7703 2.49805C13.5946 2.49805 2.91351 13.1791 2.91351 26.3548C2.91351 39.5305 13.5946 50.2115 26.7703 50.2115C28.0017 50.2115 29.2114 50.1181 30.3925 49.9381C18.9359 48.1929 10.158 38.299 10.158 26.3547Z" fill="#F1E0E4"/>
<path d="M26.3793 52.7096C11.8472 52.7096 0.0244751 40.8869 0.0244751 26.3548C0.0244751 11.8227 11.8472 0 26.3793 0C40.9114 0 52.7341 11.8227 52.7341 26.3548C52.7341 40.8869 40.9114 52.7096 26.3793 52.7096ZM26.3793 4.99617C14.6021 4.99617 5.02065 14.5776 5.02065 26.3548C5.02065 38.1321 14.6021 47.7135 26.3793 47.7135C38.1565 47.7135 47.7379 38.1321 47.7379 26.3548C47.7379 14.5776 38.1565 4.99617 26.3793 4.99617Z" fill="#04063E"/>
<path d="M61.4774 64.0001C60.8382 64.0001 60.1988 63.7562 59.7109 63.2685L48.5319 52.0896C47.5564 51.1139 47.5564 49.5321 48.5319 48.5566C49.5076 47.581 51.0894 47.581 52.0649 48.5566L63.2438 59.7356C64.2193 60.7112 64.2193 62.293 63.2438 63.2685C62.7561 63.7561 62.1167 64.0001 61.4774 64.0001ZM29.3956 33.4283L39.2677 23.4943C40.2402 22.5157 40.2352 20.934 39.2565 19.9615C38.2782 18.9891 36.6965 18.9938 35.7238 19.9726L25.8497 29.9088C25.3267 30.4361 24.633 30.7267 23.8963 30.7267C23.1596 30.7267 22.4659 30.4361 21.9431 29.9088L17.1616 25.086C16.1902 24.1062 14.6085 24.0992 13.6288 25.0707C12.649 26.0421 12.6423 27.6238 13.6136 28.6035L18.3951 33.4263C19.8635 34.9072 21.8172 35.7227 23.8964 35.7227C25.9757 35.7227 27.9293 34.9072 29.3956 33.4283Z" fill="#FF0054"/>
</g>
<defs>
<clipPath id="clip0_225_4207">
<rect width="64" height="64" fill="white"/>
</clipPath>
</defs>
</svg>
