<svg width="102" height="102" viewBox="0 0 102 102" fill="none" xmlns="http://www.w3.org/2000/svg">
<rect width="101.856" height="101.856" rx="15.8905" fill="#AAD559"/>
<path fill-rule="evenodd" clip-rule="evenodd" d="M42.2934 61.3454H38.821C38.821 62.482 38.6196 63.5723 38.2492 64.5793C38.0825 65.033 38.1126 65.533 38.3302 65.9636C38.5478 66.3942 38.6705 66.8826 38.6705 67.3989C38.6705 69.1536 37.2445 70.5796 35.4898 70.5796C34.9736 70.5796 34.4852 70.4592 34.0546 70.2393C33.624 70.0217 33.124 69.9916 32.6703 70.1582C31.661 70.5286 30.5729 70.7323 29.434 70.7323C28.1701 70.7323 26.964 70.4823 25.8621 70.0263C25.2139 69.7601 24.4685 69.9082 23.9731 70.4036C23.4777 70.9013 23.3296 71.6467 23.5958 72.2949C25.5218 76.9664 30.1239 80.2582 35.4898 80.2582C42.585 80.2582 48.3492 74.4964 48.3492 67.3989C48.3492 64.9798 47.6802 62.7181 46.5181 60.7852L43.5411 62.5746L42.2934 61.3454Z" fill="url(#paint0_linear_225_2494)"/>
<path d="M35.3046 75.5147C39.8893 75.5147 43.6059 71.7981 43.6059 67.2134C43.6059 62.6287 39.8893 58.9121 35.3046 58.9121C30.7199 58.9121 27.0033 62.6287 27.0033 67.2134C27.0033 71.7981 30.7199 75.5147 35.3046 75.5147Z" fill="url(#paint1_linear_225_2494)"/>
<path fill-rule="evenodd" clip-rule="evenodd" d="M17.1789 57.725C17.1789 58.5722 17.7923 59.2968 18.628 59.438C19.466 59.5769 20.2808 59.0931 20.5563 58.2898C21.8249 54.6068 25.3227 51.9585 29.434 51.9585C34.6148 51.9585 38.821 56.1647 38.821 61.3455V61.5261C38.8117 61.9914 38.99 62.4428 39.3164 62.7738C39.6428 63.1072 40.0896 63.2947 40.5572 63.2947H80.2602C83.1377 63.2947 85.4688 60.9635 85.4688 58.0861V31.0572C85.4688 28.1797 83.1377 25.8486 80.2602 25.8486C69.0098 25.8486 33.6379 25.8486 22.3874 25.8486C19.51 25.8486 17.1789 28.1797 17.1789 31.0572V57.725Z" fill="url(#paint2_linear_225_2494)"/>
<path fill-rule="evenodd" clip-rule="evenodd" d="M25.2811 50.4858C25.2811 51.0112 25.5195 51.5089 25.9316 51.84C26.3413 52.1687 26.8807 52.2937 27.3946 52.1803C28.052 52.0344 28.7349 51.958 29.434 51.958C32.2767 51.958 34.8255 53.2243 36.5477 55.2221C36.8765 55.604 37.358 55.8239 37.8626 55.8239H72.1858C72.6442 55.8239 73.0863 55.6411 73.4127 55.3147C73.7391 54.9906 73.922 54.5484 73.922 54.0878C73.922 53.634 74.1003 53.1988 74.422 52.8794C74.7415 52.5576 75.1767 52.377 75.6304 52.377C76.5888 52.377 77.3666 51.6015 77.3666 50.6409C77.3666 47.2009 77.3666 41.9414 77.3666 38.5015C77.3666 37.5431 76.5888 36.7653 75.6304 36.7653C75.1767 36.7653 74.7415 36.5847 74.422 36.2652C74.1003 35.9435 73.922 35.5083 73.922 35.0545C73.922 34.5962 73.7391 34.154 73.4127 33.8276C73.0863 33.5012 72.6442 33.3184 72.1858 33.3184C63.248 33.3184 39.3997 33.3184 30.4642 33.3184C30.0035 33.3184 29.5613 33.5012 29.2349 33.8276C28.9109 34.154 28.728 34.5962 28.728 35.0545C28.728 35.5083 28.5474 35.9435 28.2256 36.2652C27.9062 36.5847 27.471 36.7653 27.0173 36.7653C26.0589 36.7653 25.2811 37.5431 25.2811 38.5015V50.4858Z" fill="url(#paint3_linear_225_2494)"/>
<path d="M29.434 74.2045C36.536 74.2045 42.2934 68.4472 42.2934 61.3452C42.2934 54.2432 36.536 48.4858 29.434 48.4858C22.332 48.4858 16.5747 54.2432 16.5747 61.3452C16.5747 68.4472 22.332 74.2045 29.434 74.2045Z" fill="url(#paint4_linear_225_2494)"/>
<path d="M29.434 69.2002C33.7719 69.2002 37.2885 65.6836 37.2885 61.3457C37.2885 57.0078 33.7719 53.4912 29.434 53.4912C25.0961 53.4912 21.5795 57.0078 21.5795 61.3457C21.5795 65.6836 25.0961 69.2002 29.434 69.2002Z" fill="url(#paint5_linear_225_2494)"/>
<path d="M51.3238 50.7707C54.7476 50.7707 57.5232 47.9952 57.5232 44.5714C57.5232 41.1476 54.7476 38.3721 51.3238 38.3721C47.9 38.3721 45.1245 41.1476 45.1245 44.5714C45.1245 47.9952 47.9 50.7707 51.3238 50.7707Z" fill="url(#paint6_linear_225_2494)"/>
<path d="M65.2619 46.8867C66.5404 46.8867 67.5768 45.8502 67.5768 44.5717C67.5768 43.2933 66.5404 42.2568 65.2619 42.2568C63.9834 42.2568 62.947 43.2933 62.947 44.5717C62.947 45.8502 63.9834 46.8867 65.2619 46.8867Z" fill="url(#paint7_linear_225_2494)"/>
<path d="M37.483 46.8867C38.7615 46.8867 39.7979 45.8502 39.7979 44.5717C39.7979 43.2933 38.7615 42.2568 37.483 42.2568C36.2045 42.2568 35.1681 43.2933 35.1681 44.5717C35.1681 45.8502 36.2045 46.8867 37.483 46.8867Z" fill="url(#paint8_linear_225_2494)"/>
<defs>
<linearGradient id="paint0_linear_225_2494" x1="44.1291" y1="74.5496" x2="29.1192" y2="59.5397" gradientUnits="userSpaceOnUse">
<stop stop-color="#FFD54F"/>
<stop offset="1" stop-color="#D8A500"/>
</linearGradient>
<linearGradient id="paint1_linear_225_2494" x1="42.2956" y1="70.6649" x2="37.0408" y2="65.4101" gradientUnits="userSpaceOnUse">
<stop stop-color="#FB9F4E"/>
<stop offset="1" stop-color="#D46300"/>
</linearGradient>
<linearGradient id="paint2_linear_225_2494" x1="53.2429" y1="36.5181" x2="53.2429" y2="97.2266" gradientUnits="userSpaceOnUse">
<stop stop-color="#5BB573"/>
<stop offset="1" stop-color="#1F883B"/>
</linearGradient>
<linearGradient id="paint3_linear_225_2494" x1="58.9816" y1="42.7331" x2="58.9816" y2="88.448" gradientUnits="userSpaceOnUse">
<stop stop-color="#B6D8B1"/>
<stop offset="1" stop-color="#4ECC3C"/>
</linearGradient>
<linearGradient id="paint4_linear_225_2494" x1="30.0938" y1="56.0209" x2="30.0938" y2="97.2263" gradientUnits="userSpaceOnUse">
<stop stop-color="#FFD54F"/>
<stop offset="1" stop-color="#D8A500"/>
</linearGradient>
<linearGradient id="paint5_linear_225_2494" x1="29.3252" y1="57.6071" x2="29.3252" y2="91.4674" gradientUnits="userSpaceOnUse">
<stop stop-color="#FB9F4E"/>
<stop offset="1" stop-color="#D46300"/>
</linearGradient>
<linearGradient id="paint6_linear_225_2494" x1="51.2127" y1="42.1917" x2="51.2127" y2="63.2944" gradientUnits="userSpaceOnUse">
<stop stop-color="#5BB774"/>
<stop offset="1" stop-color="#1E8A3C"/>
</linearGradient>
<linearGradient id="paint7_linear_225_2494" x1="37.4829" y1="43.5115" x2="37.4829" y2="58.1302" gradientUnits="userSpaceOnUse">
<stop stop-color="#01946F"/>
<stop offset="1" stop-color="#004433"/>
</linearGradient>
<linearGradient id="paint8_linear_225_2494" x1="37.483" y1="43.5115" x2="37.483" y2="58.1302" gradientUnits="userSpaceOnUse">
<stop stop-color="#01946F"/>
<stop offset="1" stop-color="#004433"/>
</linearGradient>
</defs>
</svg>
