<svg width="64" height="64" viewBox="0 0 64 64" fill="none" xmlns="http://www.w3.org/2000/svg">
<path d="M12.75 60.3627C11.6774 61.0808 10.6377 61.5 9.25 61.5C5.522 61.5 2.5 58.4779 2.5 54.75V38.25C2.5 34.5222 5.522 31.5 9.25 31.5C10.6377 31.5 11.6774 31.9194 12.75 32.6374C10.9412 33.8484 9.75 35.9099 9.75 38.25V54.75C9.75 57.0902 10.9412 59.1517 12.75 60.3627ZM32.5 54.75V15.6449C32.5 14.7365 31.7636 14 30.8551 14C29.322 14 28.5492 12.1648 29.6265 11.078L32.6203 8.00003C33.9278 6.68091 36.0675 6.68091 37.375 8.00003L39.349 6.45291L37.6639 4.75291C34.6862 1.74903 29.8137 1.74903 26.8361 4.75291L19.0171 12.6407C16.564 15.1153 18.3237 19.25 21.8149 19.25H24.75H25.25V54.6448C25.25 58.3453 28.1844 61.4375 31.8844 61.4992C33.3231 61.5232 34.3976 61.1007 35.5 60.3627C33.6912 59.1517 32.5 57.0902 32.5 54.75ZM55.25 54.75V31.75C55.25 29.4099 56.4412 27.3484 58.25 26.1374C57.1774 25.4193 56.1377 25 54.75 25C51.0221 25 48 28.022 48 31.75V54.75C48 58.4779 51.0221 61.5 54.75 61.5C56.1377 61.5 57.1774 61.0808 58.25 60.3627C56.4412 59.1517 55.25 57.0902 55.25 54.75Z" fill="#F1E0E4"/>
<path d="M54.75 64C49.6495 64 45.5 59.8505 45.5 54.75V31.75C45.5 26.6495 49.6495 22.5 54.75 22.5C59.8505 22.5 64 26.6495 64 31.75V54.75C64 59.8505 59.8505 64 54.75 64ZM54.75 27.5C52.4065 27.5 50.5 29.4065 50.5 31.75V54.75C50.5 57.0935 52.4065 59 54.75 59C57.0935 59 59 57.0935 59 54.75V31.75C59 29.4065 57.0935 27.5 54.75 27.5ZM9.25 64C4.1495 64 0 59.8505 0 54.75V38.25C0 33.1495 4.1495 29 9.25 29C14.3505 29 18.5 33.1495 18.5 38.25V54.75C18.5 59.8505 14.3505 64 9.25 64ZM9.25 34C6.9065 34 5 35.9065 5 38.25V54.75C5 57.0935 6.9065 59 9.25 59C11.5935 59 13.5 57.0935 13.5 54.75V38.25C13.5 35.9065 11.5935 34 9.25 34ZM41.25 54.75V45C41.25 43.6193 40.1307 42.5 38.75 42.5C37.3693 42.5 36.25 43.6193 36.25 45V54.75C36.25 57.0935 34.3435 59 32 59C29.6565 59 27.75 57.0935 27.75 54.75V19.25C27.75 17.8692 26.6308 16.75 25.25 16.75H21.8149C20.9385 16.75 20.5929 16.1476 20.4849 15.8885C20.381 15.6392 20.203 14.9953 20.7926 14.4005L28.6117 6.51275C29.5788 5.53725 30.8709 5 32.25 5C33.6291 5 34.9212 5.53725 35.8882 6.51288L43.7074 14.4006C44.297 14.9955 44.119 15.6394 44.0151 15.8886C43.9072 16.1476 43.5615 16.7501 42.6851 16.7501H38.75C37.3693 16.7501 36.25 17.8694 36.25 19.2501C36.25 20.6309 37.3693 21.7501 38.75 21.7501H42.6851C45.2996 21.7501 47.6333 20.2044 48.6304 17.8121C49.6344 15.4032 49.1086 12.7471 47.2584 10.8806L39.4393 2.99288C37.5263 1.06288 34.973 0 32.25 0C29.527 0 26.9738 1.06287 25.0606 2.99275L17.2415 10.8805C15.3913 12.7471 14.8655 15.4031 15.8695 17.812C16.8668 20.2043 19.2004 21.75 21.8149 21.75H22.75V54.75C22.75 59.8505 26.8995 64 32 64C37.1005 64 41.25 59.8505 41.25 54.75Z" fill="#04063E"/>
<path d="M38.75 37.875C37.3693 37.875 36.25 36.7557 36.25 35.375V28.625C36.25 27.2443 37.3693 26.125 38.75 26.125C40.1307 26.125 41.25 27.2443 41.25 28.625V35.375C41.25 36.7557 40.1307 37.875 38.75 37.875Z" fill="#1CC9CB"/>
</svg>
