<svg xmlns="http://www.w3.org/2000/svg" viewBox="0 0 120 120" width="120" height="120" preserveAspectRatio="xMidYMid meet" style="width: 100%; height: 100%; transform: translate3d(0px, 0px, 0px); content-visibility: visible;"><defs><clipPath id="__lottie_element_2"><rect width="120" height="120" x="0" y="0"/></clipPath><clipPath id="__lottie_element_4"><path d="M0,0 L120,0 L120,120 L0,120z"/></clipPath><clipPath id="__lottie_element_12"><path d="M0,0 L120,0 L120,120 L0,120z"/></clipPath><clipPath id="__lottie_element_17"><path d="M0,0 L120,0 L120,120 L0,120z"/></clipPath><clipPath id="__lottie_element_32"><path d="M0,0 L120,0 L120,120 L0,120z"/></clipPath><clipPath id="__lottie_element_41"><path d="M0,0 L120,0 L120,120 L0,120z"/></clipPath><clipPath id="__lottie_element_50"><path d="M0,0 L120,0 L120,120 L0,120z"/></clipPath><clipPath id="__lottie_element_59"><path d="M0,0 L120,0 L120,120 L0,120z"/></clipPath><clipPath id="__lottie_element_68"><path d="M0,0 L120,0 L120,120 L0,120z"/></clipPath></defs><g clip-path="url(#__lottie_element_2)"><g style="display: none;"><g><path/></g></g><g clip-path="url(#__lottie_element_68)" transform="matrix(1,0,0,1,0,0)" opacity="1" style="display: block;"><g transform="matrix(0.9398815631866455,0.3415006697177887,-0.3415006697177887,0.9398815631866455,27.10947036743164,-10.432296752929688)" opacity="1" style="display: block;"><g opacity="1" transform="matrix(1,0,0,1,0,0)"><path fill="rgb(255,241,241)" fill-opacity="1" d=" M53.601715087890625,1.521601676940918 C54.329830169677734,0.7094379663467407 55.601924896240234,0.7094379663467407 56.330039978027344,1.521601676940918 C56.330039978027344,1.521601676940918 59.030879974365234,4.533988952636719 59.030879974365234,4.533988952636719 C59.65886306762695,5.2344279289245605 60.71521759033203,5.345468044281006 61.475120544433594,4.790889739990234 C61.475120544433594,4.790889739990234 64.74320983886719,2.4058563709259033 64.74320983886719,2.4058563709259033 C65.62431335449219,1.7628294229507446 66.8685531616211,2.027315378189087 67.4119873046875,2.973123073577881 C67.4119873046875,2.973123073577881 69.42739868164062,6.481200218200684 69.42739868164062,6.481200218200684 C69.89598846435547,7.29690408706665 70.90625762939453,7.625150203704834 71.76482391357422,7.240682601928711 C71.76482391357422,7.240682601928711 75.45734405517578,5.587235450744629 75.45734405517578,5.587235450744629 C76.45286560058594,5.141444683074951 77.61502838134766,5.65885591506958 77.94985961914062,6.696969032287598 C77.94985961914062,6.696969032287598 79.19190216064453,10.547402381896973 79.19190216064453,10.547402381896973 C79.48065948486328,11.442705154418945 80.40060424804688,11.973857879638672 81.32036590576172,11.77625560760498 C81.32036590576172,11.77625560760498 85.27598571777344,10.926667213439941 85.27598571777344,10.926667213439941 C86.34241485595703,10.69764232635498 87.3715591430664,11.445361137390137 87.48332214355469,12.530387878417969 C87.48332214355469,12.530387878417969 87.8975830078125,16.554988861083984 87.8975830078125,16.554988861083984 C87.99395751953125,17.49078369140625 88.78336334228516,18.201492309570312 89.7240982055664,18.19947624206543 C89.7240982055664,18.19947624206543 93.76995849609375,18.190866470336914 93.76995849609375,18.190866470336914 C94.86103057861328,18.188575744628906 95.71208190917969,19.13389778137207 95.59574127197266,20.21846580505371 C95.59574127197266,20.21846580505371 95.16426086425781,24.241235733032227 95.16426086425781,24.241235733032227 C95.06348419189453,25.176570892333984 95.68826293945312,26.03596305847168 96.60894012451172,26.229534149169922 C96.60894012451172,26.229534149169922 100.56832122802734,27.062267303466797 100.56832122802734,27.062267303466797 C101.63557434082031,27.286802291870117 102.27134704589844,28.38850212097168 101.93238830566406,29.42515754699707 C101.93238830566406,29.42515754699707 100.67366790771484,33.27029800415039 100.67366790771484,33.27029800415039 C100.38143157958984,34.164405822753906 100.81291961669922,35.13473892211914 101.67313385009766,35.515560150146484 C101.67313385009766,35.515560150146484 105.37325286865234,37.15327072143555 105.37325286865234,37.15327072143555 C106.36996459960938,37.59482955932617 106.76296997070312,38.80462646484375 106.216064453125,39.74811553955078 C106.216064453125,39.74811553955078 104.18598937988281,43.24761199951172 104.18598937988281,43.24761199951172 C103.7132797241211,44.0612907409668 103.93406677246094,45.10032653808594 104.69625854492188,45.651634216308594 C104.69625854492188,45.651634216308594 107.97496795654297,48.02267837524414 107.97496795654297,48.02267837524414 C108.8590087890625,48.66193389892578 108.99183654785156,49.927066802978516 108.25988006591797,50.73616409301758 C108.25988006591797,50.73616409301758 105.54639434814453,53.73702621459961 105.54639434814453,53.73702621459961 C104.91520690917969,54.434722900390625 104.91520690917969,55.497032165527344 105.54639434814453,56.194732666015625 C105.54639434814453,56.194732666015625 108.25988006591797,59.195594787597656 108.25988006591797,59.195594787597656 C108.99183654785156,60.00469207763672 108.8590087890625,61.26982498168945 107.97496795654297,61.90907669067383 C107.97496795654297,61.90907669067383 104.69625854492188,64.28012084960938 104.69625854492188,64.28012084960938 C103.93406677246094,64.83142852783203 103.7132797241211,65.87046813964844 104.18598937988281,66.68414306640625 C104.18598937988281,66.68414306640625 106.216064453125,70.18363952636719 106.216064453125,70.18363952636719 C106.76296997070312,71.12712860107422 106.36996459960938,72.33692932128906 105.37325286865234,72.77848815917969 C105.37325286865234,72.77848815917969 101.67313385009766,74.41619873046875 101.67313385009766,74.41619873046875 C100.81291961669922,74.7970199584961 100.38143157958984,75.76734924316406 100.67366790771484,76.66146087646484 C100.67366790771484,76.66146087646484 101.93238830566406,80.50659942626953 101.93238830566406,80.50659942626953 C102.27134704589844,81.54325103759766 101.63557434082031,82.64495086669922 100.56832122802734,82.86949157714844 C100.56832122802734,82.86949157714844 96.60894012451172,83.70222473144531 96.60894012451172,83.70222473144531 C95.68826293945312,83.89579772949219 95.06348419189453,84.75518798828125 95.16426086425781,85.69052124023438 C95.16426086425781,85.69052124023438 95.59574127197266,89.71329498291016 95.59574127197266,89.71329498291016 C95.71208190917969,90.79785919189453 94.86103057861328,91.74354553222656 93.76995849609375,91.74079895019531 C93.76995849609375,91.74079895019531 89.7240982055664,91.73255157470703 89.7240982055664,91.73255157470703 C88.78336334228516,91.72980499267578 87.99395751953125,92.4406967163086 87.8975830078125,93.376953125 C87.8975830078125,93.376953125 87.48332214355469,97.4013671875 87.48332214355469,97.4013671875 C87.3715591430664,98.48603057861328 86.34241485595703,99.23448181152344 85.27598571777344,99.00545501708984 C85.27598571777344,99.00545501708984 81.32036590576172,98.15531921386719 81.32036590576172,98.15531921386719 C80.40060424804688,97.95835876464844 79.48065948486328,98.48877716064453 79.19190216064453,99.38471984863281 C79.19190216064453,99.38471984863281 77.94985961914062,103.23507690429688 77.94985961914062,103.23507690429688 C77.61502838134766,104.27301788330078 76.45286560058594,104.79061126708984 75.45734405517578,104.34447479248047 C75.45734405517578,104.34447479248047 71.76482391357422,102.69091796875 71.76482391357422,102.69091796875 C70.90625762939453,102.30615997314453 69.89598846435547,102.6350326538086 69.42739868164062,103.45036315917969 C69.42739868164062,103.45036315917969 67.4119873046875,106.95901489257812 67.4119873046875,106.95901489257812 C66.8685531616211,107.90443420410156 65.62431335449219,108.16918182373047 64.74320983886719,107.52608489990234 C64.74320983886719,107.52608489990234 61.475120544433594,105.14056396484375 61.475120544433594,105.14056396484375 C60.71521759033203,104.5863265991211 59.65886306762695,104.69717407226562 59.030879974365234,105.39798736572266 C59.030879974365234,105.39798736572266 56.330039978027344,108.41011810302734 56.330039978027344,108.41011810302734 C55.601924896240234,109.22269439697266 54.329830169677734,109.22269439697266 53.601715087890625,108.41011810302734 C53.601715087890625,108.41011810302734 50.900875091552734,105.39798736572266 50.900875091552734,105.39798736572266 C50.272891998291016,104.69717407226562 49.21653747558594,104.5863265991211 48.456634521484375,105.14056396484375 C48.456634521484375,105.14056396484375 45.18854904174805,107.52608489990234 45.18854904174805,107.52608489990234 C44.30744552612305,108.16918182373047 43.063201904296875,107.90443420410156 42.519771575927734,106.95901489257812 C42.519771575927734,106.95901489257812 40.504356384277344,103.45036315917969 40.504356384277344,103.45036315917969 C40.035770416259766,102.6350326538086 39.02549743652344,102.30615997314453 38.16693115234375,102.69091796875 C38.16693115234375,102.69091796875 34.47441482543945,104.34447479248047 34.47441482543945,104.34447479248047 C33.4788932800293,104.79061126708984 32.31673049926758,104.27301788330078 31.981895446777344,103.23507690429688 C31.981895446777344,103.23507690429688 30.739850997924805,99.38471984863281 30.739850997924805,99.38471984863281 C30.451095581054688,98.48877716064453 29.531150817871094,97.95835876464844 28.61138916015625,98.15531921386719 C28.61138916015625,98.15531921386719 24.65576934814453,99.00545501708984 24.65576934814453,99.00545501708984 C23.589340209960938,99.23448181152344 22.560195922851562,98.48603057861328 22.44843101501465,97.4013671875 C22.44843101501465,97.4013671875 22.03417205810547,93.376953125 22.03417205810547,93.376953125 C21.93779754638672,92.4406967163086 21.148395538330078,91.72980499267578 20.20765495300293,91.73255157470703 C20.20765495300293,91.73255157470703 16.16189193725586,91.74079895019531 16.16189193725586,91.74079895019531 C15.071094512939453,91.74354553222656 14.219856262207031,90.79785919189453 14.336200714111328,89.71329498291016 C14.336200714111328,89.71329498291016 14.767682075500488,85.69052124023438 14.767682075500488,85.69052124023438 C14.867995262145996,84.75518798828125 14.243674278259277,83.89579772949219 13.323087692260742,83.70222473144531 C13.323087692260742,83.70222473144531 9.363895416259766,82.86949157714844 9.363895416259766,82.86949157714844 C8.296448707580566,82.64495086669922 7.660402297973633,81.54325103759766 7.999679088592529,80.50659942626953 C7.999679088592529,80.50659942626953 9.258086204528809,76.66146087646484 9.258086204528809,76.66146087646484 C9.550687789916992,75.76734924316406 9.11865520477295,74.7970199584961 8.258440017700195,74.41619873046875 C8.258440017700195,74.41619873046875 4.558906078338623,72.77848815917969 4.558906078338623,72.77848815917969 C3.5614864826202393,72.33692932128906 3.168389320373535,71.12712860107422 3.715794563293457,70.18363952636719 C3.715794563293457,70.18363952636719 5.746160507202148,66.68414306640625 5.746160507202148,66.68414306640625 C6.218262195587158,65.87046813964844 5.997409343719482,64.83142852783203 5.235161304473877,64.28012084960938 C5.235161304473877,64.28012084960938 1.956968903541565,61.90907669067383 1.956968903541565,61.90907669067383 C1.0731450319290161,61.26982498168945 0.9401726722717285,60.00469207763672 1.6717784404754639,59.195594787597656 C1.6717784404754639,59.195594787597656 4.385351657867432,56.194732666015625 4.385351657867432,56.194732666015625 C5.016314506530762,55.497032165527344 5.016314506530762,54.434722900390625 4.385351657867432,53.73702621459961 C4.385351657867432,53.73702621459961 1.6717784404754639,50.73616409301758 1.6717784404754639,50.73616409301758 C0.9401726722717285,49.927066802978516 1.0731450319290161,48.66193389892578 1.956968903541565,48.02267837524414 C1.956968903541565,48.02267837524414 5.235161304473877,45.651634216308594 5.235161304473877,45.651634216308594 C5.997409343719482,45.10032653808594 6.218262195587158,44.0612907409668 5.746160507202148,43.24761199951172 C5.746160507202148,43.24761199951172 3.7157845497131348,39.74811553955078 3.7157845497131348,39.74811553955078 C3.168389320373535,38.80462646484375 3.5614864826202393,37.59482955932617 4.558906078338623,37.15327072143555 C4.558906078338623,37.15327072143555 8.258440017700195,35.515560150146484 8.258440017700195,35.515560150146484 C9.11865520477295,35.13473892211914 9.550687789916992,34.164405822753906 9.258086204528809,33.27029800415039 C9.258086204528809,33.27029800415039 7.999679088592529,29.42515754699707 7.999679088592529,29.42515754699707 C7.660402297973633,28.38850212097168 8.296448707580566,27.286802291870117 9.363895416259766,27.062267303466797 C9.363895416259766,27.062267303466797 13.323087692260742,26.229534149169922 13.323087692260742,26.229534149169922 C14.243674278259277,26.03596305847168 14.867995262145996,25.176570892333984 14.767682075500488,24.241235733032227 C14.767682075500488,24.241235733032227 14.336200714111328,20.21846580505371 14.336200714111328,20.21846580505371 C14.219856262207031,19.13389778137207 15.071094512939453,18.188575744628906 16.16189193725586,18.190866470336914 C16.16189193725586,18.190866470336914 20.20765495300293,18.19947624206543 20.20765495300293,18.19947624206543 C21.148395538330078,18.201492309570312 21.93779754638672,17.49078369140625 22.03417205810547,16.554988861083984 C22.03417205810547,16.554988861083984 22.44843101501465,12.530387878417969 22.44843101501465,12.530387878417969 C22.560195922851562,11.445361137390137 23.589340209960938,10.69764232635498 24.65576934814453,10.926667213439941 C24.65576934814453,10.926667213439941 28.61138916015625,11.77625560760498 28.61138916015625,11.77625560760498 C29.531150817871094,11.973857879638672 30.451095581054688,11.442705154418945 30.739850997924805,10.547402381896973 C30.739850997924805,10.547402381896973 31.981895446777344,6.696969032287598 31.981895446777344,6.696969032287598 C32.31673049926758,5.65885591506958 33.4788932800293,5.141444683074951 34.47441482543945,5.587235450744629 C34.47441482543945,5.587235450744629 38.16693115234375,7.240682601928711 38.16693115234375,7.240682601928711 C39.02549743652344,7.625150203704834 40.035770416259766,7.29690408706665 40.504356384277344,6.481191635131836 C40.504356384277344,6.481191635131836 42.519771575927734,2.973123073577881 42.519771575927734,2.973123073577881 C43.063201904296875,2.027315378189087 44.30744552612305,1.7628294229507446 45.18854904174805,2.4058563709259033 C45.18854904174805,2.4058563709259033 48.456634521484375,4.790889739990234 48.456634521484375,4.790889739990234 C49.21653747558594,5.345468044281006 50.272891998291016,5.2344279289245605 50.900875091552734,4.533988952636719 C50.900875091552734,4.533988952636719 53.601715087890625,1.521601676940918 53.601715087890625,1.521601676940918 C53.601715087890625,1.521601676940918 53.601715087890625,1.521601676940918 53.601715087890625,1.521601676940918z"/></g></g></g><g clip-path="url(#__lottie_element_4)" transform="matrix(1,0,0,1,0,0)" opacity="1" style="display: block;"><g clip-path="url(#__lottie_element_12)" transform="matrix(1,0,0,1,0,0)" opacity="1" style="display: block;"><g clip-path="url(#__lottie_element_59)" transform="matrix(1,0,0,1,0,0)" opacity="1" style="display: block;"><g transform="matrix(1,0,0,1,26,25)" opacity="1" style="display: block;"><g opacity="1" transform="matrix(1,0,0,1,0,0)"><path fill="rgb(245,245,245)" fill-opacity="1" d=" M0,56.75984191894531 C0,56.75984191894531 0,26.609281539916992 0,26.609281539916992 C0,24.654638290405273 0.9521529078483582,22.822498321533203 2.5517914295196533,21.699073791503906 C2.5517914295196533,21.699073791503906 30.001445770263672,2.4218130111694336 30.001445770263672,2.4218130111694336 C32.07085418701172,0.968565046787262 34.829193115234375,0.9685662984848022 36.898502349853516,2.421823024749756 C36.898502349853516,2.421823024749756 64.34821319580078,21.699073791503906 64.34821319580078,21.699073791503906 C65.9478988647461,22.822498321533203 66.9000473022461,24.654638290405273 66.9000473022461,26.609281539916992 C66.9000473022461,26.609281539916992 66.9000473022461,56.75984191894531 66.9000473022461,56.75984191894531 C66.9000473022461,60.073612213134766 64.21360778808594,62.759971618652344 60.89973831176758,62.759971618652344 C60.89973831176758,62.759971618652344 6.000308990478516,62.759971618652344 6.000308990478516,62.759971618652344 C2.6864283084869385,62.759971618652344 0,60.073612213134766 0,56.75984191894531 C0,56.75984191894531 0,56.75984191894531 0,56.75984191894531z"/></g></g></g><g clip-path="url(#__lottie_element_50)" transform="matrix(1,0,0,1,0,0)" opacity="1" style="display: block;"><g transform="matrix(1,0,0,1,34.97001266479492,31.209999084472656)" opacity="1" style="display: block;"><g opacity="1" transform="matrix(1,0,0,1,0,0)"><path fill="rgb(255,215,215)" fill-opacity="1" d=" M0,5 C-3.3591068815905527e-16,2.2570810317993164 2.2570810317993164,4.4109500132107787e-16 5,0 C5,0 43.279998779296875,0 43.279998779296875,0 C46.022918701171875,1.6795534407952763e-16 48.279998779296875,2.2570810317993164 48.279998779296875,5 C48.279998779296875,5 48.279998779296875,45.34000015258789 48.279998779296875,45.34000015258789 C48.279998779296875,48.08292007446289 46.022918701171875,50.34000015258789 43.279998779296875,50.34000015258789 C43.279998779296875,50.34000015258789 5,50.34000015258789 5,50.34000015258789 C2.2570810317993164,50.34000015258789 3.3591068815905527e-16,48.08292007446289 0,45.34000015258789 C0,45.34000015258789 0,45.34000015258789 0,45.34000015258789 C0,45.34000015258789 0,5 0,5z"/></g></g></g><g clip-path="url(#__lottie_element_41)" transform="matrix(1,0,0,1,0,0)" opacity="1" style="display: block;"><g transform="matrix(1,0,0,1,30.829999923706055,52.59000015258789)" opacity="1" style="display: block;"><g opacity="1" transform="matrix(1,0,0,1,0,0)"><path fill="rgb(245,245,245)" fill-opacity="1" d=" M18.215776443481445,27.014381408691406 C18.215776443481445,27.014381408691406 0,0 0,0 C0,0 28.964984893798828,18.516803741455078 28.964984893798828,18.516803741455078 C28.964984893798828,18.516803741455078 57.929969787597656,0 57.929969787597656,0 C57.929969787597656,0 42.75994110107422,26.629819869995117 42.75994110107422,26.629819869995117 C41.6927604675293,28.503223419189453 39.70259475708008,29.660011291503906 37.54683303833008,29.660011291503906 C37.54683303833008,29.660011291503906 23.190088272094727,29.660011291503906 23.190088272094727,29.660011291503906 C21.195322036743164,29.660011291503906 19.331056594848633,28.66844940185547 18.215776443481445,27.014381408691406 C18.215776443481445,27.014381408691406 18.215776443481445,27.014381408691406 18.215776443481445,27.014381408691406z"/></g></g></g><g clip-path="url(#__lottie_element_32)" transform="matrix(1,0,0,1,0,0)" opacity="1" style="display: block;"><g transform="matrix(1,0,0,1,26.690000534057617,48.45000076293945)" opacity="1" style="display: block;"><g opacity="1" transform="matrix(1,0,0,1,0,0)"><path fill="rgb(250,250,250)" fill-opacity="1" d=" M0,33.310001373291016 C0,33.310001373291016 0,0 0,0 C0,0 32.759979248046875,21.868003845214844 32.759979248046875,21.868003845214844 C32.759979248046875,21.868003845214844 65.51995849609375,0 65.51995849609375,0 C65.51995849609375,0 65.51995849609375,33.31010055541992 65.51995849609375,33.31010055541992 C65.51995849609375,36.62377166748047 62.83364486694336,39.3100471496582 59.51970672607422,39.3100471496582 C59.51970672607422,39.3100471496582 6.000252723693848,39.3100471496582 6.000252723693848,39.3100471496582 C2.686403274536133,39.3100471496582 0,36.62377166748047 0,33.310001373291016 C0,33.310001373291016 0,33.310001373291016 0,33.310001373291016z"/></g></g></g><g clip-path="url(#__lottie_element_17)" transform="matrix(1,0,0,1,0,0)" opacity="1" style="display: block;"><g transform="matrix(1,0,0,1,52,43)" opacity="1" style="display: block;"><g opacity="1" transform="matrix(1,0,0,1,0,0)"><path fill="rgb(0,0,0)" fill-opacity="0" d=" M0,5.500007152557373 C0,5.500007152557373 5.9202561378479,12 5.9202561378479,12 C5.9202561378479,12 16.850000381469727,0 16.850000381469727,0"/></g></g><g transform="matrix(1,0,0,1,52,43)" opacity="1" style="display: block;"><g opacity="1" transform="matrix(1,0,0,1,0,0)"><path stroke-linecap="round" stroke-linejoin="round" fill-opacity="0" stroke="rgb(255,121,121)" stroke-opacity="1" stroke-width="5" d=" M0,5.500007152557373 C0,5.500007152557373 5.9202561378479,12 5.9202561378479,12 C5.9202561378479,12 16.850000381469727,0 16.850000381469727,0"/></g></g><g transform="matrix(1,0,0,1,0,0)" opacity="1" style="display: block;"><g opacity="1" transform="matrix(1,0,0,1,0,0)"><path fill="rgb(0,0,0)" fill-opacity="0" d=" M120,0 C120,0 120,120 120,120 C120,120 0,120 0,120 C0,120 0,0 0,0 C0,0 120,0 120,0z"/></g></g></g></g><g transform="matrix(1,0,0,1,26,25)" opacity="1" style="display: block;"><g opacity="1" transform="matrix(1,0,0,1,0,0)"><path fill="rgb(0,0,0)" fill-opacity="0" d=" M66.9000015258789,0 C66.9000015258789,0 66.9000015258789,62.7599983215332 66.9000015258789,62.7599983215332 C66.9000015258789,62.7599983215332 0,62.7599983215332 0,62.7599983215332 C0,62.7599983215332 0,0 0,0 C0,0 66.9000015258789,0 66.9000015258789,0z"/></g></g></g></g></svg>