<svg width="18" height="18" viewBox="0 0 18 18" fill="none" xmlns="http://www.w3.org/2000/svg">
<path d="M0 10.0638V7.23217H2.98471L5.73982 7.72962L5.93115 7.23217L3.63522 5.66329L1.53062 3.52042L3.52042 1.53062L5.66329 3.63522L7.23217 5.93115L7.72962 5.73982L7.23217 2.98471V0H10.0638V2.98471L9.56637 5.73982L10.0638 5.93115L11.6327 3.63522L13.7756 1.53062L15.7654 3.52042L13.6608 5.66329L11.3648 7.23217L11.5562 7.72962L14.3113 7.23217H17.296V10.0638H14.3113L11.5562 9.56637L11.3648 10.0638L13.6608 11.6327L15.7654 13.7756L13.7756 15.7654L11.6327 13.6608L10.0638 11.3648L9.56637 11.5562L10.0638 14.3113V17.296H7.23217V14.3113L7.72962 11.5562L7.23217 11.3648L5.66329 13.6608L3.52042 15.7654L1.53062 13.7756L3.63522 11.6327L5.93115 10.0638L5.73982 9.56637L2.98471 10.0638H0Z" fill="#FF0054"/>
</svg>
